<svg viewBox="0 0 1200 230" xmlns="http://www.w3.org/2000/svg" role="img" aria-label="HyDE pipeline">

  <defs>
    <radialGradient id="bg" cx="50%" cy="0%" r="120%">
      <stop offset="0%" stop-color="#141c30"/>
      <stop offset="55%" stop-color="#0a0f1e"/>
      <stop offset="100%" stop-color="#04060d"/>
    </radialGradient>
    <linearGradient id="accent" x1="0%" y1="0%" x2="100%" y2="0%">
      <stop offset="0%" stop-color="#22d3ee"/>
      <stop offset="50%" stop-color="#3b82f6"/>
      <stop offset="100%" stop-color="#a855f7"/>
    </linearGradient>
    <filter id="glow" x="-60%" y="-60%" width="220%" height="220%">
      <feGaussianBlur stdDeviation="7" result="b"/>
      <feMerge><feMergeNode in="b"/><feMergeNode in="SourceGraphic"/></feMerge>
    </filter>
    <filter id="soft" x="-60%" y="-60%" width="220%" height="220%">
      <feGaussianBlur stdDeviation="3" result="b"/>
      <feMerge><feMergeNode in="b"/><feMergeNode in="SourceGraphic"/></feMerge>
    </filter>
  </defs>

  <rect width="1200" height="230" rx="18" fill="url(#bg)"/>
  <g><circle cx="30" cy="30" r="1" fill="#162136" opacity="0.5"/><circle cx="70" cy="30" r="1" fill="#162136" opacity="0.5"/><circle cx="110" cy="30" r="1" fill="#162136" opacity="0.5"/><circle cx="150" cy="30" r="1" fill="#162136" opacity="0.5"/><circle cx="190" cy="30" r="1" fill="#162136" opacity="0.5"/><circle cx="230" cy="30" r="1" fill="#162136" opacity="0.5"/><circle cx="270" cy="30" r="1" fill="#162136" opacity="0.5"/><circle cx="310" cy="30" r="1" fill="#162136" opacity="0.5"/><circle cx="350" cy="30" r="1" fill="#162136" opacity="0.5"/><circle cx="390" cy="30" r="1" fill="#162136" opacity="0.5"/><circle cx="430" cy="30" r="1" fill="#162136" opacity="0.5"/><circle cx="470" cy="30" r="1" fill="#162136" opacity="0.5"/><circle cx="510" cy="30" r="1" fill="#162136" opacity="0.5"/><circle cx="550" cy="30" r="1" fill="#162136" opacity="0.5"/><circle cx="590" cy="30" r="1" fill="#162136" opacity="0.5"/><circle cx="630" cy="30" r="1" fill="#162136" opacity="0.5"/><circle cx="670" cy="30" r="1" fill="#162136" opacity="0.5"/><circle cx="710" cy="30" r="1" fill="#162136" opacity="0.5"/><circle cx="750" cy="30" r="1" fill="#162136" opacity="0.5"/><circle cx="790" cy="30" r="1" fill="#162136" opacity="0.5"/><circle cx="830" cy="30" r="1" fill="#162136" opacity="0.5"/><circle cx="870" cy="30" r="1" fill="#162136" opacity="0.5"/><circle cx="910" cy="30" r="1" fill="#162136" opacity="0.5"/><circle cx="950" cy="30" r="1" fill="#162136" opacity="0.5"/><circle cx="990" cy="30" r="1" fill="#162136" opacity="0.5"/><circle cx="1030" cy="30" r="1" fill="#162136" opacity="0.5"/><circle cx="1070" cy="30" r="1" fill="#162136" opacity="0.5"/><circle cx="1110" cy="30" r="1" fill="#162136" opacity="0.5"/><circle cx="1150" cy="30" r="1" fill="#162136" opacity="0.5"/><circle cx="1190" cy="30" r="1" fill="#162136" opacity="0.5"/><circle cx="30" cy="70" r="1" fill="#162136" opacity="0.5"/><circle cx="70" cy="70" r="1" fill="#162136" opacity="0.5"/><circle cx="110" cy="70" r="1" fill="#162136" opacity="0.5"/><circle cx="150" cy="70" r="1" fill="#162136" opacity="0.5"/><circle cx="190" cy="70" r="1" fill="#162136" opacity="0.5"/><circle cx="230" cy="70" r="1" fill="#162136" opacity="0.5"/><circle cx="270" cy="70" r="1" fill="#162136" opacity="0.5"/><circle cx="310" cy="70" r="1" fill="#162136" opacity="0.5"/><circle cx="350" cy="70" r="1" fill="#162136" opacity="0.5"/><circle cx="390" cy="70" r="1" fill="#162136" opacity="0.5"/><circle cx="430" cy="70" r="1" fill="#162136" opacity="0.5"/><circle cx="470" cy="70" r="1" fill="#162136" opacity="0.5"/><circle cx="510" cy="70" r="1" fill="#162136" opacity="0.5"/><circle cx="550" cy="70" r="1" fill="#162136" opacity="0.5"/><circle cx="590" cy="70" r="1" fill="#162136" opacity="0.5"/><circle cx="630" cy="70" r="1" fill="#162136" opacity="0.5"/><circle cx="670" cy="70" r="1" fill="#162136" opacity="0.5"/><circle cx="710" cy="70" r="1" fill="#162136" opacity="0.5"/><circle cx="750" cy="70" r="1" fill="#162136" opacity="0.5"/><circle cx="790" cy="70" r="1" fill="#162136" opacity="0.5"/><circle cx="830" cy="70" r="1" fill="#162136" opacity="0.5"/><circle cx="870" cy="70" r="1" fill="#162136" opacity="0.5"/><circle cx="910" cy="70" r="1" fill="#162136" opacity="0.5"/><circle cx="950" cy="70" r="1" fill="#162136" opacity="0.5"/><circle cx="990" cy="70" r="1" fill="#162136" opacity="0.5"/><circle cx="1030" cy="70" r="1" fill="#162136" opacity="0.5"/><circle cx="1070" cy="70" r="1" fill="#162136" opacity="0.5"/><circle cx="1110" cy="70" r="1" fill="#162136" opacity="0.5"/><circle cx="1150" cy="70" r="1" fill="#162136" opacity="0.5"/><circle cx="1190" cy="70" r="1" fill="#162136" opacity="0.5"/><circle cx="30" cy="110" r="1" fill="#162136" opacity="0.5"/><circle cx="70" cy="110" r="1" fill="#162136" opacity="0.5"/><circle cx="110" cy="110" r="1" fill="#162136" opacity="0.5"/><circle cx="150" cy="110" r="1" fill="#162136" opacity="0.5"/><circle cx="190" cy="110" r="1" fill="#162136" opacity="0.5"/><circle cx="230" cy="110" r="1" fill="#162136" opacity="0.5"/><circle cx="270" cy="110" r="1" fill="#162136" opacity="0.5"/><circle cx="310" cy="110" r="1" fill="#162136" opacity="0.5"/><circle cx="350" cy="110" r="1" fill="#162136" opacity="0.5"/><circle cx="390" cy="110" r="1" fill="#162136" opacity="0.5"/><circle cx="430" cy="110" r="1" fill="#162136" opacity="0.5"/><circle cx="470" cy="110" r="1" fill="#162136" opacity="0.5"/><circle cx="510" cy="110" r="1" fill="#162136" opacity="0.5"/><circle cx="550" cy="110" r="1" fill="#162136" opacity="0.5"/><circle cx="590" cy="110" r="1" fill="#162136" opacity="0.5"/><circle cx="630" cy="110" r="1" fill="#162136" opacity="0.5"/><circle cx="670" cy="110" r="1" fill="#162136" opacity="0.5"/><circle cx="710" cy="110" r="1" fill="#162136" opacity="0.5"/><circle cx="750" cy="110" r="1" fill="#162136" opacity="0.5"/><circle cx="790" cy="110" r="1" fill="#162136" opacity="0.5"/><circle cx="830" cy="110" r="1" fill="#162136" opacity="0.5"/><circle cx="870" cy="110" r="1" fill="#162136" opacity="0.5"/><circle cx="910" cy="110" r="1" fill="#162136" opacity="0.5"/><circle cx="950" cy="110" r="1" fill="#162136" opacity="0.5"/><circle cx="990" cy="110" r="1" fill="#162136" opacity="0.5"/><circle cx="1030" cy="110" r="1" fill="#162136" opacity="0.5"/><circle cx="1070" cy="110" r="1" fill="#162136" opacity="0.5"/><circle cx="1110" cy="110" r="1" fill="#162136" opacity="0.5"/><circle cx="1150" cy="110" r="1" fill="#162136" opacity="0.5"/><circle cx="1190" cy="110" r="1" fill="#162136" opacity="0.5"/><circle cx="30" cy="150" r="1" fill="#162136" opacity="0.5"/><circle cx="70" cy="150" r="1" fill="#162136" opacity="0.5"/><circle cx="110" cy="150" r="1" fill="#162136" opacity="0.5"/><circle cx="150" cy="150" r="1" fill="#162136" opacity="0.5"/><circle cx="190" cy="150" r="1" fill="#162136" opacity="0.5"/><circle cx="230" cy="150" r="1" fill="#162136" opacity="0.5"/><circle cx="270" cy="150" r="1" fill="#162136" opacity="0.5"/><circle cx="310" cy="150" r="1" fill="#162136" opacity="0.5"/><circle cx="350" cy="150" r="1" fill="#162136" opacity="0.5"/><circle cx="390" cy="150" r="1" fill="#162136" opacity="0.5"/><circle cx="430" cy="150" r="1" fill="#162136" opacity="0.5"/><circle cx="470" cy="150" r="1" fill="#162136" opacity="0.5"/><circle cx="510" cy="150" r="1" fill="#162136" opacity="0.5"/><circle cx="550" cy="150" r="1" fill="#162136" opacity="0.5"/><circle cx="590" cy="150" r="1" fill="#162136" opacity="0.5"/><circle cx="630" cy="150" r="1" fill="#162136" opacity="0.5"/><circle cx="670" cy="150" r="1" fill="#162136" opacity="0.5"/><circle cx="710" cy="150" r="1" fill="#162136" opacity="0.5"/><circle cx="750" cy="150" r="1" fill="#162136" opacity="0.5"/><circle cx="790" cy="150" r="1" fill="#162136" opacity="0.5"/><circle cx="830" cy="150" r="1" fill="#162136" opacity="0.5"/><circle cx="870" cy="150" r="1" fill="#162136" opacity="0.5"/><circle cx="910" cy="150" r="1" fill="#162136" opacity="0.5"/><circle cx="950" cy="150" r="1" fill="#162136" opacity="0.5"/><circle cx="990" cy="150" r="1" fill="#162136" opacity="0.5"/><circle cx="1030" cy="150" r="1" fill="#162136" opacity="0.5"/><circle cx="1070" cy="150" r="1" fill="#162136" opacity="0.5"/><circle cx="1110" cy="150" r="1" fill="#162136" opacity="0.5"/><circle cx="1150" cy="150" r="1" fill="#162136" opacity="0.5"/><circle cx="1190" cy="150" r="1" fill="#162136" opacity="0.5"/><circle cx="30" cy="190" r="1" fill="#162136" opacity="0.5"/><circle cx="70" cy="190" r="1" fill="#162136" opacity="0.5"/><circle cx="110" cy="190" r="1" fill="#162136" opacity="0.5"/><circle cx="150" cy="190" r="1" fill="#162136" opacity="0.5"/><circle cx="190" cy="190" r="1" fill="#162136" opacity="0.5"/><circle cx="230" cy="190" r="1" fill="#162136" opacity="0.5"/><circle cx="270" cy="190" r="1" fill="#162136" opacity="0.5"/><circle cx="310" cy="190" r="1" fill="#162136" opacity="0.5"/><circle cx="350" cy="190" r="1" fill="#162136" opacity="0.5"/><circle cx="390" cy="190" r="1" fill="#162136" opacity="0.5"/><circle cx="430" cy="190" r="1" fill="#162136" opacity="0.5"/><circle cx="470" cy="190" r="1" fill="#162136" opacity="0.5"/><circle cx="510" cy="190" r="1" fill="#162136" opacity="0.5"/><circle cx="550" cy="190" r="1" fill="#162136" opacity="0.5"/><circle cx="590" cy="190" r="1" fill="#162136" opacity="0.5"/><circle cx="630" cy="190" r="1" fill="#162136" opacity="0.5"/><circle cx="670" cy="190" r="1" fill="#162136" opacity="0.5"/><circle cx="710" cy="190" r="1" fill="#162136" opacity="0.5"/><circle cx="750" cy="190" r="1" fill="#162136" opacity="0.5"/><circle cx="790" cy="190" r="1" fill="#162136" opacity="0.5"/><circle cx="830" cy="190" r="1" fill="#162136" opacity="0.5"/><circle cx="870" cy="190" r="1" fill="#162136" opacity="0.5"/><circle cx="910" cy="190" r="1" fill="#162136" opacity="0.5"/><circle cx="950" cy="190" r="1" fill="#162136" opacity="0.5"/><circle cx="990" cy="190" r="1" fill="#162136" opacity="0.5"/><circle cx="1030" cy="190" r="1" fill="#162136" opacity="0.5"/><circle cx="1070" cy="190" r="1" fill="#162136" opacity="0.5"/><circle cx="1110" cy="190" r="1" fill="#162136" opacity="0.5"/><circle cx="1150" cy="190" r="1" fill="#162136" opacity="0.5"/><circle cx="1190" cy="190" r="1" fill="#162136" opacity="0.5"/></g>
  <text x="40" y="42" font-family="Menlo,Consolas,monospace" font-size="16" fill="#6f86a8" letter-spacing="2">PIPELINE</text>
  <line x1="196" y1="116.0" x2="266" y2="116.0" stroke="url(#accent)" stroke-width="2.4" filter="url(#soft)"/><path d="M 264 110.0 L 276 116.0 L 264 122.0 Z" fill="#3b82f6"/><line x1="438" y1="116.0" x2="509" y2="116.0" stroke="url(#accent)" stroke-width="2.4" filter="url(#soft)"/><path d="M 507 110.0 L 519 116.0 L 507 122.0 Z" fill="#3b82f6"/><line x1="681" y1="116.0" x2="752" y2="116.0" stroke="url(#accent)" stroke-width="2.4" filter="url(#soft)"/><path d="M 750 110.0 L 762 116.0 L 750 122.0 Z" fill="#3b82f6"/><line x1="924" y1="116.0" x2="994" y2="116.0" stroke="url(#accent)" stroke-width="2.4" filter="url(#soft)"/><path d="M 992 110.0 L 1004 116.0 L 992 122.0 Z" fill="#3b82f6"/><rect x="40" y="70" width="150" height="92" rx="14" fill="#0e1a33" stroke="#2a3a5c" stroke-width="1.4" filter="none"/><text x="115" y="124" text-anchor="middle" font-family="-apple-system,Segoe UI,Helvetica,Arial,sans-serif" font-size="21" font-weight="600" fill="#e6eefb">query</text><rect x="282" y="70" width="150" height="92" rx="14" fill="#0e1a33" stroke="#2a3a5c" stroke-width="1.4" filter="none"/><text x="358" y="112" text-anchor="middle" font-family="-apple-system,Segoe UI,Helvetica,Arial,sans-serif" font-size="20" font-weight="600" fill="#e6eefb">LLM writes</text><text x="358" y="136" text-anchor="middle" font-family="Menlo,Consolas,monospace" font-size="16" fill="#7fd0e6">fake answer</text><rect x="525" y="70" width="150" height="92" rx="14" fill="#0e1a33" stroke="#2a3a5c" stroke-width="1.4" filter="none"/><text x="600" y="112" text-anchor="middle" font-family="-apple-system,Segoe UI,Helvetica,Arial,sans-serif" font-size="20" font-weight="600" fill="#e6eefb">search with</text><text x="600" y="136" text-anchor="middle" font-family="Menlo,Consolas,monospace" font-size="16" fill="#7fd0e6">hypothetical</text><rect x="768" y="70" width="150" height="92" rx="14" fill="#0e1a33" stroke="#2a3a5c" stroke-width="1.4" filter="none"/><text x="842" y="112" text-anchor="middle" font-family="-apple-system,Segoe UI,Helvetica,Arial,sans-serif" font-size="20" font-weight="600" fill="#e6eefb">real</text><text x="842" y="136" text-anchor="middle" font-family="Menlo,Consolas,monospace" font-size="16" fill="#7fd0e6">documents</text><rect x="1010" y="70" width="150" height="92" rx="14" fill="#10233a" stroke="url(#accent)" stroke-width="2.4" filter="url(#soft)"/><text x="1085" y="112" text-anchor="middle" font-family="-apple-system,Segoe UI,Helvetica,Arial,sans-serif" font-size="20" font-weight="600" fill="#e6eefb">answer</text><text x="1085" y="136" text-anchor="middle" font-family="Menlo,Consolas,monospace" font-size="16" fill="#7fd0e6">+ citations</text>
</svg>